<svg viewBox="0 0 24 24" fill="none"
    xmlns="http://www.w3.org/2000/svg">
    <!-- Background circle with Agent Pay blue -->
    <circle cx="12" cy="12" r="12" fill="#3B82F6"/>

    <!-- Robot head/helmet in white -->
    <path d="M6 8h12a2 2 0 0 1 2 2v6a2 2 0 0 1-2 2H6a2 2 0 0 1-2-2v-6a2 2 0 0 1 2-2z" stroke="white" strokeWidth="1.5" fill="none"/>

    <!-- Eyes -->
    <circle cx="9" cy="12" r="1" fill="white" />
    <circle cx="15" cy="12" r="1" fill="white" />

    <!-- Smile -->
    <path d="M11 15h2" stroke="white" strokeWidth="1.2" strokeLinecap="round"/>

    <!-- Headphones -->
    <path d="M4 10v4a1 1 0 0 0 1 1h1" stroke="white" strokeWidth="1.5" strokeLinecap="round" fill="none" />
    <path d="M20 10v4a1 1 0 0 1-1 1h-1" stroke="white" strokeWidth="1.5" strokeLinecap="round" fill="none" />

    <!-- Antenna -->
    <path d="M12 6v2" stroke="white" strokeWidth="1.5" strokeLinecap="round"/>
    <circle cx="12" cy="5" r="0.8" fill="white" />
</svg>
