<svg xmlns="http://www.w3.org/2000/svg" width="50" height="50" fill="none"><g clip-path="url(#a)"><path fill="#F04E23" d="M43.057 31.895c.226-4.46-1.334-11.753-5.04-17.72-.1-.153-.267-.093-.234.067.247.907.307 2.553-1.133 2.453-2.56-.173.087-5.653-5.533-9.453a.12.12 0 0 0-.187.147c.387.733.614 3.02-.273 3.8-.713.626-2 .46-3.287-1.6a8.9 8.9 0 0 1 .127-9.387c.107-.173-.04-.24-.16-.2-7.733 2.553-9.28 11.673-10.927 14.993-.273.56-.513.847-.986.82-1.407-.093-.394-3.1.093-4.146a.12.12 0 0 0-.194-.134A32.846 32.846 0 0 0 7.05 29.37c0-.154-.067.546-.107 1.06 0 .2-.013.402-.04.606v.727a18.097 18.097 0 0 0 36.194.3.322.322 0 0 1-.04-.167zm-18.16 8.407a8.393 8.393 0 1 1 .094-16.786 8.393 8.393 0 0 1-.094 16.786z"/></g><defs><clipPath id="a"><path fill="#fff" d="M0 0h50v50H0z"/></clipPath></defs></svg>