<svg xmlns="http://www.w3.org/2000/svg" width="50" height="50" fill="none"><g fill="#2DB56F" clip-path="url(#a)"><path d="M49.706 42.027a.946.946 0 0 0 .01-1.36l-4.239-4.24a1.005 1.005 0 0 0-1.387-.016 21.587 21.587 0 0 1-34.51-7.674A21.59 21.59 0 0 1 13.588 5.91a1.005 1.005 0 0 0-.016-1.387L9.333.283a.946.946 0 0 0-1.36.011 29.525 29.525 0 0 0 41.733 41.733z"/><path d="M37.492 35.41c.885-.511.6-2.664-.639-4.808-1.237-2.144-2.959-3.468-3.845-2.957-.885.512-.6 2.664.638 4.808 1.238 2.145 2.96 3.469 3.846 2.957zm-8.001-2.615c-.509 2.424-1.733 4.218-2.733 4.008-1.001-.21-1.4-2.345-.892-4.768.51-2.424 1.733-4.217 2.734-4.007 1 .21 1.4 2.344.891 4.767zM18.099 32.4c.754.69 2.72-.23 4.393-2.056 1.672-1.826 2.416-3.866 1.662-4.557-.754-.69-2.721.23-4.393 2.056-1.672 1.826-2.417 3.866-1.662 4.557zm-.022-8.187c-2.408.578-4.553.24-4.792-.755-.239-.994 1.52-2.268 3.927-2.846 2.408-.578 4.553-.24 4.792.754.238.994-1.52 2.269-3.927 2.847zm-2.983-11.717c-.568.85.64 2.655 2.699 4.03 2.059 1.376 4.188 1.802 4.756.951.569-.85-.64-2.654-2.698-4.03-2.06-1.375-4.189-1.801-4.757-.951z"/></g><defs><clipPath id="a"><path fill="#fff" d="M0 0h50v50H0z"/></clipPath></defs></svg>